<svg width="732" height="732" viewBox="0 0 732 732" fill="none" xmlns="http://www.w3.org/2000/svg">
<g opacity="0.4">
<path fill-rule="evenodd" clip-rule="evenodd" d="M366 732C568.136 732 732 568.136 732 366C732 163.864 568.136 0 366 0C163.864 0 0 163.864 0 366C0 568.136 163.864 732 366 732Z" fill="#9AF4EF"/>
<path opacity="0.3" fill-rule="evenodd" clip-rule="evenodd" d="M281.361 0C119.355 43.2523 0 190.956 0 366.596C0 481.92 51.5131 585.151 132.704 654.747C302.449 622.955 430.941 474.083 430.941 295.112C430.941 173.966 372.043 66.6149 281.361 0Z" transform="translate(301.059 70.8884)" fill="#FFFFF4"/>
<path fill-rule="evenodd" clip-rule="evenodd" d="M302.726 88.8951C286.645 75.5919 263.41 87.4168 250.9 76.6942C234.18 62.363 230.383 58.6143 215.114 54.6998C201.174 51.1256 188.553 59.2119 175.127 41.3094C165.476 28.4422 156.373 29.7446 144.727 32.604C133.081 35.4634 129.503 32.2981 113.829 19.3279C103.464 10.7498 93.9919 7.71173 72.5466 8.42658C54.4597 9.02991 40.2343 5.02106 27.0125 0C14.2983 28.5051 5.08111 58.9003 0 90.6965C51.7976 96.1336 67.3669 93.7703 87.5583 100.284C109.719 107.432 325.125 151.038 328.938 148.893C332.751 146.749 335.28 112.717 335.28 112.717C313.648 108.808 313.353 97.6863 302.726 88.8951Z" transform="translate(4.65649 217.106)" fill="#36B294"/>
<path opacity="0.4" fill-rule="evenodd" clip-rule="evenodd" d="M0 167.75C0 248.545 57.1346 315.965 133.197 331.899C186.842 268.224 219.218 186.042 219.218 96.2651C219.218 64.7534 215.231 34.1738 207.742 4.99819C194.904 1.85145 181.559 0 167.75 0C75.1043 0 0 75.1029 0 167.75Z" transform="translate(512.781 269.735)" fill="#FFFFF4"/>
<path fill-rule="evenodd" clip-rule="evenodd" d="M7.22564 92.2148C3.23252 92.2148 0 88.9809 0 84.9935V7.22135C0 3.23395 3.23395 0 7.22564 0C11.2188 0 14.4513 3.23395 14.4513 7.22135V84.9935C14.4513 88.9823 11.2188 92.2148 7.22564 92.2148Z" transform="translate(596.823 303.834)" fill="#674447"/>
<path fill-rule="evenodd" clip-rule="evenodd" d="M91.0225 102.401C91.0225 127.537 70.6466 147.913 45.5112 147.913C20.3759 147.913 0 127.537 0 102.401C0 77.266 20.3759 0 45.5112 0C70.6466 0.00142969 91.0225 77.266 91.0225 102.401Z" transform="translate(558.536 202.029)" fill="#43AB5F"/>
<path fill-rule="evenodd" clip-rule="evenodd" d="M17.781 0C11.4718 0 5.46284 4.87666 0 12.5684H0.00142969C23.0065 12.5684 41.6554 83.2864 41.6554 106.292C41.6554 126.303 27.5329 142.987 8.71823 146.999C11.6477 147.591 14.6757 147.913 17.7796 147.913C42.9149 147.913 63.2908 127.537 63.2908 102.401C63.2923 77.266 42.9149 0 17.781 0Z" transform="translate(586.267 202.029)" fill="#71BE63"/>
<path opacity="0.6" fill-rule="evenodd" clip-rule="evenodd" d="M0 39.1105C0 23.9916 12.2567 11.7334 27.3771 11.7334C29.6589 11.7334 31.8406 12.0937 33.9594 12.6199C41.1035 4.90526 51.2314 0 62.5746 0C84.1743 0 101.684 17.5094 101.684 39.1091H0V39.1105Z" transform="translate(238.252 163.366)" fill="#F8FEFD"/>
<path opacity="0.6" fill-rule="evenodd" clip-rule="evenodd" d="M0 34.9173C0 21.4182 10.9428 10.4753 24.4419 10.4753C26.4792 10.4753 28.4279 10.797 30.3194 11.2674C36.6972 4.37913 45.74 0 55.8679 0C75.1515 0 90.7852 15.6336 90.7852 34.9173H0Z" transform="translate(234.891 58.0122)" fill="#F8FEFD"/>
<path opacity="0.6" fill-rule="evenodd" clip-rule="evenodd" d="M72.9141 28.0447C72.9141 17.2034 64.1243 8.41371 53.283 8.41371C51.646 8.41371 50.082 8.67248 48.5622 9.04992C43.4396 3.51846 36.1768 0 28.0433 0C12.5555 0.00142969 0 12.5569 0 28.0447H72.9141Z" transform="translate(498.961 92.9282)" fill="#F8FEFD"/>
<path fill-rule="evenodd" clip-rule="evenodd" d="M377.263 91.5C367.641 91.5 366.037 81.9854 365.094 80.0625C354.562 58.6172 341.814 68.625 320.898 68.625C304.545 68.625 301.202 44.7964 292.075 45.75C282.948 46.7036 268.244 61.9526 255.567 57.1875C237.375 50.3479 236.805 40.0313 219.057 34.3125C203.396 29.2657 190.154 32.8828 182.547 22.875C167.737 3.38836 157.067 24.6621 133.867 11.4375C110.273 -2.013 102.936 22.875 85.1894 22.875C66.5448 22.875 73.0184 0 48.6794 0C34.8915 0 26.7652 16.8131 9.32585 21.5668C3.29257 47.7473 0 74.9557 0 102.938C0 117.366 0.940734 131.57 2.58773 145.561C8.18496 150.755 14.2368 155.323 20.3059 157.929C42.0643 167.273 498.961 175.301 498.961 175.301V137.25C465.493 137.25 465.493 114.375 438.112 114.375C401.222 114.375 404.644 91.5 377.263 91.5Z" transform="translate(0 263.062)" fill="#00A07D"/>
<path fill-rule="evenodd" clip-rule="evenodd" d="M152.977 260.175L491.812 78.6988L483.234 60.1872C401.192 60.1872 258.822 -23.2122 0 6.33513C0 97.502 33.4089 180.814 88.552 244.887C123.188 253.161 152.977 260.175 152.977 260.175Z" transform="translate(0 359.663)" fill="#94D75B"/>
<path fill-rule="evenodd" clip-rule="evenodd" d="M421.247 60.1232C346.013 60.1232 219.975 -9.94432 0 1.20153C195.574 1.37023 315.511 88.9171 376.927 88.9171L394.083 82.5179L421.758 61.227L421.247 60.1232Z" transform="translate(61.9868 359.729)" fill="#B0EB81"/>
<path fill-rule="evenodd" clip-rule="evenodd" d="M135.972 20.9192C132.679 20.9192 129.568 21.5668 126.586 22.5076C117.14 8.9284 101.469 0 83.6753 0C65.8814 0 50.2106 8.9284 40.7647 22.5076C37.7824 21.5668 34.6714 20.9192 31.3788 20.9192C14.0495 20.9192 0 34.9673 0 52.298H167.351C167.349 34.9687 153.301 20.9192 135.972 20.9192Z" transform="translate(121.745 150.178)" fill="#F8FEFD"/>
<path fill-rule="evenodd" clip-rule="evenodd" d="M148.688 22.875C145.088 22.875 141.685 23.5841 138.424 24.6121C128.094 9.76334 110.959 0 91.5 0C72.0405 0 54.9057 9.76334 44.5762 24.6121C41.3151 23.5841 37.9125 22.875 34.3125 22.875C15.362 22.875 0 38.237 0 57.1875H183C183 38.237 167.638 22.875 148.688 22.875Z" transform="translate(354.562 119.14)" fill="#F8FEFD"/>
<path fill-rule="evenodd" clip-rule="evenodd" d="M0 52.4224C0 32.1565 16.4285 15.7266 36.6958 15.7266C39.7539 15.7266 42.679 16.2098 45.5198 16.9161C55.0944 6.57513 68.6708 0 83.8755 0C112.827 0 136.298 23.4698 136.298 52.4224H0Z" transform="translate(264.07 66.7178)" fill="#F8FEFD"/>
<path fill-rule="evenodd" clip-rule="evenodd" d="M0 161.912C57.4105 288.943 185.132 377.389 333.593 377.389C535.73 377.389 699.593 213.525 699.593 11.3889C699.593 7.56877 699.422 3.79153 699.306 0C472.976 1.03795 370.345 160.076 0 160.076V161.912Z" transform="translate(32.4067 354.611)" fill="#71BE63"/>
<path fill-rule="evenodd" clip-rule="evenodd" d="M8.20069 104.642C3.67001 104.642 0 100.973 0 96.4482V8.19354C0 3.66858 3.66858 0 8.20069 0C12.7328 0 16.3999 3.66858 16.3999 8.19354V96.4482C16.3999 100.973 12.7314 104.642 8.20069 104.642Z" transform="translate(490.763 337.604)" fill="#674447"/>
<path fill-rule="evenodd" clip-rule="evenodd" d="M103.289 116.202C103.289 144.724 80.1669 167.847 51.6446 167.847C23.1223 167.847 0 144.724 0 116.202C0 87.6799 23.1223 0 51.6446 0C80.1669 0 103.289 87.6785 103.289 116.202Z" transform="translate(447.316 222.078)" fill="#43AB5F"/>
<path fill-rule="evenodd" clip-rule="evenodd" d="M20.1772 0C13.0173 0 6.19912 5.53432 0 14.2626H0.00142969C26.1075 14.2626 47.2698 94.5109 47.2698 120.617C47.2698 143.325 31.2444 162.258 9.89344 166.812C13.2175 167.484 16.6544 167.848 20.1757 167.848C48.698 167.848 71.8218 144.726 71.8218 116.204C71.8232 87.6784 48.6994 0 20.1772 0Z" transform="translate(478.783 222.078)" fill="#71BE63"/>
<path fill-rule="evenodd" clip-rule="evenodd" d="M616.564 0C455.706 0.789187 225.099 223.359 0 241.591C65.5655 303.741 153.947 342.038 251.431 342.038C445.508 342.038 604.21 190.955 616.564 0Z" transform="translate(114.569 389.961)" fill="#43AB5F"/>
<path fill-rule="evenodd" clip-rule="evenodd" d="M9.53172 19.0634C14.796 19.0634 19.0634 14.796 19.0634 9.53172C19.0634 4.2675 14.796 0 9.53172 0C4.2675 0 0 4.2675 0 9.53172C0 14.796 4.2675 19.0634 9.53172 19.0634Z" transform="translate(270.031 631.922)" fill="#B0EB81"/>
<path fill-rule="evenodd" clip-rule="evenodd" d="M9.53172 19.0634C14.796 19.0634 19.0634 14.796 19.0634 9.53172C19.0634 4.2675 14.796 0 9.53172 0C4.2675 0 0 4.2675 0 9.53172C0 14.796 4.2675 19.0634 9.53172 19.0634Z" transform="translate(314.531 519.833)" fill="#94D75B"/>
<path fill-rule="evenodd" clip-rule="evenodd" d="M9.53172 19.0634C14.796 19.0634 19.0634 14.796 19.0634 9.53172C19.0634 4.2675 14.796 0 9.53172 0C4.2675 0 0 4.2675 0 9.53172C0 14.796 4.2675 19.0634 9.53172 19.0634Z" transform="translate(572.446 394.655)" fill="#94D75B"/>
<path fill-rule="evenodd" clip-rule="evenodd" d="M9.53172 19.0634C14.796 19.0634 19.0634 14.796 19.0634 9.53172C19.0634 4.2675 14.796 0 9.53172 0C4.2675 0 0 4.2675 0 9.53172C0 14.796 4.2675 19.0634 9.53172 19.0634Z" transform="translate(413.32 647.171)" fill="#71BE63"/>
<path fill-rule="evenodd" clip-rule="evenodd" d="M9.53172 19.0634C14.796 19.0634 19.0634 14.796 19.0634 9.53172C19.0634 4.2675 14.796 0 9.53172 0C4.2675 0 0 4.2675 0 9.53172C0 14.796 4.2675 19.0634 9.53172 19.0634Z" transform="translate(464.683 588.078)" fill="#B0EB81"/>
<path fill-rule="evenodd" clip-rule="evenodd" d="M9.53172 19.0634C14.796 19.0634 19.0634 14.796 19.0634 9.53172C19.0634 4.2675 14.796 0 9.53172 0C4.2675 0 0 4.2675 0 9.53172C0 14.796 4.2675 19.0634 9.53172 19.0634Z" transform="translate(356.469 601.634)" fill="#71BE63"/>
<path fill-rule="evenodd" clip-rule="evenodd" d="M9.53172 19.0634C14.796 19.0634 19.0634 14.796 19.0634 9.53172C19.0634 4.2675 14.796 0 9.53172 0C4.2675 0 0 4.2675 0 9.53172C0 14.796 4.2675 19.0634 9.53172 19.0634Z" transform="translate(196.344 641.452)" fill="#71BE63"/>
<path fill-rule="evenodd" clip-rule="evenodd" d="M9.53172 19.0634C14.796 19.0634 19.0634 14.796 19.0634 9.53172C19.0634 4.2675 14.796 0 9.53172 0C4.2675 0 0 4.2675 0 9.53172C0 14.796 4.2675 19.0634 9.53172 19.0634Z" transform="translate(205.875 560.98)" fill="#B0EB81"/>
<path fill-rule="evenodd" clip-rule="evenodd" d="M9.53172 19.0634C14.796 19.0634 19.0634 14.796 19.0634 9.53172C19.0634 4.2675 14.796 0 9.53172 0C4.2675 0 0 4.2675 0 9.53172C0 14.796 4.2675 19.0634 9.53172 19.0634Z" transform="translate(366 484.187)" fill="#B0EB81"/>
<path fill-rule="evenodd" clip-rule="evenodd" d="M9.53172 19.0634C14.796 19.0634 19.0634 14.796 19.0634 9.53172C19.0634 4.2675 14.796 0 9.53172 0C4.2675 0 0 4.2675 0 9.53172C0 14.796 4.2675 19.0634 9.53172 19.0634Z" transform="translate(127.69 556.214)" fill="#94D75B"/>
<path fill-rule="evenodd" clip-rule="evenodd" d="M9.53172 19.0634C14.796 19.0634 19.0634 14.796 19.0634 9.53172C19.0634 4.2675 14.796 0 9.53172 0C4.2675 0 0 4.2675 0 9.53172C0 14.796 4.2675 19.0634 9.53172 19.0634Z" transform="translate(531.543 546.684)" fill="#B0EB81"/>
<path fill-rule="evenodd" clip-rule="evenodd" d="M9.53172 19.0634C14.796 19.0634 19.0634 14.796 19.0634 9.53172C19.0634 4.2675 14.796 0 9.53172 0C4.2675 0 0 4.2675 0 9.53172C0 14.796 4.2675 19.0634 9.53172 19.0634Z" transform="translate(623.823 519.833)" fill="#B0EB81"/>
<path fill-rule="evenodd" clip-rule="evenodd" d="M9.53172 19.0634C14.796 19.0634 19.0634 14.796 19.0634 9.53172C19.0634 4.2675 14.796 0 9.53172 0C4.2675 0 0 4.2675 0 9.53172C0 14.796 4.2675 19.0634 9.53172 19.0634Z" transform="translate(447.315 537.152)" fill="#71BE63"/>
<path fill-rule="evenodd" clip-rule="evenodd" d="M9.53172 19.0634C14.796 19.0634 19.0634 14.796 19.0634 9.53172C19.0634 4.2675 14.796 0 9.53172 0C4.2675 0 0 4.2675 0 9.53172C0 14.796 4.2675 19.0634 9.53172 19.0634Z" transform="translate(531.543 610.306)" fill="#71BE63"/>
<path fill-rule="evenodd" clip-rule="evenodd" d="M9.53172 19.0634C14.796 19.0634 19.0634 14.796 19.0634 9.53172C19.0634 4.2675 14.796 0 9.53172 0C4.2675 0 0 4.2675 0 9.53172C0 14.796 4.2675 19.0634 9.53172 19.0634Z" transform="translate(560.438 493.718)" fill="#71BE63"/>
<path fill-rule="evenodd" clip-rule="evenodd" d="M9.53172 19.0634C14.796 19.0634 19.0634 14.796 19.0634 9.53172C19.0634 4.2675 14.796 0 9.53172 0C4.2675 0 0 4.2675 0 9.53172C0 14.796 4.2675 19.0634 9.53172 19.0634Z" transform="translate(623.823 438.363)" fill="#71BE63"/>
</g>
</svg>
