<svg width="100" height="100" viewBox="0 0 100 100" fill="none" xmlns="http://www.w3.org/2000/svg">
<path d="M50 100C77.6142 100 100 77.6142 100 50C100 22.3858 77.6142 0 50 0C22.3858 0 0 22.3858 0 50C0 77.6142 22.3858 100 50 100Z" fill="#7CA5A9"/>
<path opacity="0.1" d="M52.3958 20.616C51.3125 42.4179 39.1459 59.9285 18.8958 65.616L0 42.3575L5.50001 28.116C6.96872 32.3241 2.36463 24.8241 5.50001 28.116L10.6041 10.6158C10.6041 5.24081 26.0415 -3.34086 31 1.35743L52.3958 20.616Z" transform="translate(47.1042 31.384)" fill="black"/>
<path d="M19.9728 11.5671C20.1508 11.0531 20.6501 10.7366 21.1734 10.8076C21.6963 10.8782 22.1013 11.3164 22.1463 11.8604L23.9388 33.5481L27.2955 21.0187C27.4327 20.5066 27.886 20.1544 28.4012 20.168C28.9143 20.1798 29.3543 20.5505 29.4695 21.0684L31.3387 29.4657L34.5302 15.58C34.6552 15.0367 35.1364 14.6645 35.6743 14.6886C36.213 14.7149 36.6573 15.1345 36.7323 15.6876L39.1142 33.2715L40.1821 29.6979C40.3275 29.2115 40.762 28.8797 41.2538 28.8797H53.2545C55.0159 26.1334 56.2693 23.3991 56.6863 20.7691C57.6017 14.9483 56.7088 10.1477 54.0264 6.50303C51.3178 2.82369 47.2034 0.724399 41.4365 0.0847964C40.8823 0.0271523 40.376 -1.21856e-07 39.8742 -1.21856e-07C35.7927 -1.21856e-07 31.6777 1.57178 28.5152 4.23038C25.3572 1.57178 21.2385 -1.21856e-07 17.1649 -1.21856e-07C16.658 -1.21856e-07 16.1562 0.0271523 15.5983 0.0847964C9.83143 0.724399 5.7127 2.82369 3.00763 6.50303C0.325982 10.1478 -0.567761 14.9483 0.347855 20.7691C0.771451 23.4407 2.05696 26.2189 3.86099 29.0076H13.9298L19.9728 11.5671Z" transform="translate(21.9659 23)" fill="#E75D4C"/>
<path d="M34.2961 21.5667C34.1407 22.0865 33.6565 22.4254 33.1344 22.3811C32.6108 22.3374 32.1865 21.9233 32.1136 21.3846L29.8599 4.74641L26.9361 17.4676C26.8159 17.991 26.3641 18.3601 25.8449 18.3603C25.8435 18.3603 25.8423 18.3603 25.841 18.3603C25.32 18.3584 24.8689 17.9852 24.7518 17.4596L22.7996 8.68944L18.9573 23.0309C18.8215 23.5375 18.3763 23.8819 17.8772 23.8821C17.8425 23.8821 17.8077 23.8803 17.7726 23.877C17.2321 23.825 16.8051 23.3795 16.7589 22.8194L14.8727 3.5449e-07L10.2985 13.2015C10.1387 13.6629 9.71619 13.9708 9.24268 13.9708H-1.24093e-07C3.72991 19.0034 8.84152 23.9838 13.3207 28.3474C13.3207 28.3474 17.138 32.3157 18.2836 33.3326C19.1482 34.0993 21.0156 35.6401 23.0425 35.6401C25.0666 35.6401 26.9383 34.0993 27.7977 33.3326C28.9434 32.3155 32.7606 28.3474 32.7606 28.3474C37.2774 23.9474 42.4375 18.9187 46.1754 13.8428H36.6045L34.2961 21.5667Z" transform="translate(27.4424 40.3599)" fill="#E75D4C"/>
<path d="M57.661 18.082H55.2205H43.2198C42.728 18.082 42.2936 18.4138 42.1481 18.9002L41.0802 22.4738L38.6983 4.88991C38.6233 4.33684 38.179 3.91722 37.6403 3.89094C37.1024 3.86683 36.621 4.23898 36.4962 4.78231L33.3047 18.668L31.4355 10.2707C31.3203 9.75277 30.8803 9.38193 30.3672 9.37032C29.852 9.35667 29.3987 9.70892 29.2615 10.221L25.9048 22.7504L24.1123 1.06275C24.0674 0.518686 23.6625 0.0804751 23.1394 0.0099083C22.6162 -0.0610941 22.1168 0.255439 21.9388 0.769444L15.8958 18.2099H5.827H1.12174C0.502257 18.2099 0 18.73 0 19.3715C0 20.013 0.502257 20.5331 1.12174 20.5331H7.44243H16.6851C17.1585 20.5331 17.5811 20.2253 17.7409 19.7638L22.3151 6.56231L24.2013 29.3817C24.2476 29.9418 24.6745 30.3872 25.2151 30.4393C25.2501 30.4426 25.2849 30.4444 25.3197 30.4444C25.8188 30.4444 26.2639 30.0998 26.3998 29.5932L30.242 15.2518L32.1942 24.0219C32.3113 24.5477 32.7624 24.9207 33.2834 24.9226C33.2848 24.9226 33.2861 24.9226 33.2874 24.9226C33.8066 24.9226 34.2584 24.5534 34.3785 24.0299L37.3023 11.3087L39.556 27.9469C39.6291 28.4856 40.0532 28.8997 40.5768 28.9434C41.0991 28.9877 41.5832 28.6488 41.7385 28.129L44.0468 20.4052H53.6177H57.661C58.2805 20.4052 58.7827 19.8851 58.7827 19.2436C58.7827 18.6021 58.2805 18.082 57.661 18.082Z" transform="translate(20 33.7976)" fill="#F7F1E6"/>
</svg>
