<svg width="100" height="100" viewBox="0 0 100 100" fill="none" xmlns="http://www.w3.org/2000/svg">
<path d="M50 100C77.6142 100 100 77.6142 100 50C100 22.3858 77.6142 0 50 0C22.3858 0 0 22.3858 0 50C0 77.6142 22.3858 100 50 100Z" fill="#83A269"/>
<path opacity="0.1" d="M78.4247 33.269L56.6663 11.5106L56.3017 11.1458L56.297 11.1505C55.7835 10.7198 55.1143 10.4712 54.385 10.5208C53.812 10.5625 53.2808 10.7812 52.8642 11.1145L45.2913 3.54167H45.281C43.3122 1.36454 40.458 -6.20882e-08 37.2915 -6.20882e-08C33.7498 -6.20882e-08 30.6144 1.71875 28.6456 4.35404C26.6768 1.71875 23.5415 -6.20882e-08 19.9998 -6.20882e-08C14.031 -6.20882e-08 9.1978 4.83337 9.1978 10.802C9.1978 13.6041 11.4687 17.3853 14.4375 21.1562L4.88546 11.6042L4.81262 11.5208C4.35425 10.9479 3.67717 10.5729 2.90629 10.5208C1.32304 10.4167 -4.09782e-07 11.677 -4.09782e-07 13.2395L0.0103761 37.6459C0.0103761 38.8125 0.562541 39.9168 1.50004 40.6146L13.5417 49.7813C14.0833 50.1874 14.3958 50.8333 14.3854 51.4998L14.2708 57.2917L35.188 78.2088C58.2031 75.1992 76.2905 56.5489 78.4247 33.269Z" transform="translate(21.3542 21.3508)" fill="black"/>
<path d="M2.90548 0.00583323C4.20085 0.0894514 5.24129 1.11382 5.43071 2.398L7.46887 16.2147C7.48902 16.351 7.38708 16.4729 7.24976 16.4819C3.97135 16.6965 2.95695 18.6915 2.95695 18.6915C0.996705 22.4806 4.0745 24.6199 4.0745 24.6199L13.2644 29.9483C13.6751 30.19 14.2188 30.1041 14.4971 29.7171C14.8157 29.2736 14.6777 28.6651 14.2185 28.3967L5.3776 23.3164C4.045 22.538 3.55937 20.8017 4.38009 19.4948C5.16256 18.2488 6.78182 17.8582 8.04057 18.5888L22.3869 26.8265C24.9312 28.3032 26.4998 31.02 26.5059 33.9619L26.5352 46.7561L14.2718 46.7822L14.3817 40.9922C14.3925 40.3179 14.0804 39.6793 13.5421 39.2736L1.49597 30.1061C0.561321 29.4018 0.0118006 28.2997 0.0111903 27.1297L4.36987e-07 2.72617C-0.00122027 1.16123 1.31755 -0.0965024 2.90548 0.00583323Z" transform="translate(21.3542 31.8635)" fill="#FCD462"/>
<path d="M23.63 0.00583323C22.3346 0.0894514 21.2941 1.11382 21.1047 2.398L19.0666 16.2147C19.0464 16.351 19.1484 16.4729 19.2857 16.4819C22.5641 16.6965 23.5785 18.6915 23.5785 18.6915C25.5387 22.4806 22.4609 24.6199 22.4609 24.6199L13.2711 29.9483C12.8603 30.19 12.3167 30.1041 12.0384 29.7171C11.7198 29.2736 11.8577 28.6651 12.3169 28.3967L21.1576 23.3164C22.4902 22.538 22.9759 20.8017 22.1552 19.4948C21.3727 18.2488 19.7534 17.8582 18.4947 18.5888L4.14836 26.8265C1.604 28.3032 0.0353992 31.02 0.0292956 33.9619L2.43386e-06 46.7561L12.2634 46.7822L12.1535 40.9922C12.1427 40.3179 12.4548 39.6793 12.9932 39.2736L25.0393 30.1061C25.9739 29.4018 26.5234 28.2997 26.5241 27.1297L26.5352 2.72617C26.5367 1.16123 25.2179 -0.0965024 23.63 0.00583323Z" transform="translate(52.1102 31.8635)" fill="#F6C358"/>
<path d="M10.7973 -1.86265e-07C4.83419 -1.86265e-07 -7.20223e-07 4.83419 -7.20223e-07 10.7973C-7.20223e-07 19.0066 19.4417 35.6447 19.4446 35.6472V4.35099C17.4756 1.71488 14.3406 -1.86265e-07 10.7973 -1.86265e-07Z" transform="translate(30.5558 21.3542)" fill="#E56353"/>
<path d="M8.64726 -1.86265e-07C5.10356 -1.86265e-07 1.96879 1.71488 -1.11759e-06 4.35099V35.647V35.6472C-1.11759e-06 35.6472 19.4442 19.0072 19.4442 10.7971C19.4444 4.83419 14.6104 -1.86265e-07 8.64726 -1.86265e-07Z" transform="translate(50 21.3542)" fill="#D15241"/>
</svg>
